<?xml version="1.0" encoding="UTF-8"?><svg id="Avion" xmlns="http://www.w3.org/2000/svg" viewBox="0 0 10 10"><defs><style>.cls-1{fill:#fff;}</style></defs><g id="Avion-2"><path class="cls-1" d="M9.75,2.22c-.17-.13-.37-.24-.57-.3-.53-.15-1.05-.04-1.54,.18-1.86,.83-3.72,1.66-5.58,2.49-.21,.09-.37,.08-.54-.06-.25-.19-.49-.38-.75-.55-.11-.07-.25-.12-.38-.12-.24,0-.32,.14-.22,.36,.19,.45,.41,.88,.58,1.33,.15,.39,.42,.53,.81,.52,.17,0,.33-.02,.5-.05,.78-.13,1.5-.42,2.22-.73,.26-.11,.52-.23,.82-.36-.2,1.09-.39,2.14-.59,3.21,.49-.09,.77-.32,1-.83,.48-1.03,.95-2.07,1.44-3.1,.04-.09,.13-.17,.22-.22,.52-.27,1.06-.51,1.57-.79,.35-.19,.69-.41,1.02-.63,.18-.12,.18-.24,0-.37Z"/><path class="cls-1" d="M2.15,2.63c.44,.27,.88,.54,1.32,.8,.03,.02,.09,.04,.12,.03,.44-.19,.88-.39,1.37-.61-.67-.2-1.28-.39-1.89-.56-.36-.1-.7-.04-1.04,.21,.06,.06,.09,.11,.13,.14Z"/></g></svg>