<?xml version="1.0" encoding="UTF-8"?><svg id="Caque-audio" xmlns="http://www.w3.org/2000/svg" viewBox="0 0 10 10"><defs><style>.cls-1{fill:#fff;}</style></defs><g id="Caque-audio-2"><path class="cls-1" d="M9.5,5.04c0-1.21-.47-2.36-1.32-3.22-.85-.86-1.98-1.33-3.18-1.33S2.67,.97,1.82,1.83c-.85,.86-1.32,2-1.32,3.22v2.15c0,1.22,.98,2.21,2.18,2.21,.14,0,.26-.12,.26-.26v-3.89c0-.15-.12-.26-.26-.26-.67,0-1.26,.3-1.66,.78v-.73C1.02,2.82,2.81,1.02,5,1.02s3.98,1.8,3.98,4.02c0,.02,0,.04,0,.05,0,.02,0,.04,0,.05v.73c-.4-.48-1-.78-1.66-.78-.14,0-.26,.12-.26,.26v3.89c0,.15,.12,.26,.26,.26,1.2,0,2.18-.99,2.18-2.21v-2.15s0-.04,0-.05c0-.02,0-.04,0-.05Zm-7.08,.49v3.32c-.79-.13-1.4-.82-1.4-1.66,0-.84,.61-1.53,1.4-1.66Zm5.15,3.43v-3.32c.79,.13,1.4,.82,1.4,1.66,0,.84-.61,1.53-1.4,1.66Z"/></g></svg>