<?xml version="1.0" encoding="UTF-8"?><svg id="Golf" xmlns="http://www.w3.org/2000/svg" viewBox="0 0 10 10"><defs><style>.cls-1{fill:#fff;}</style></defs><g id="Golf-2"><path class="cls-1" d="M5.39,10s-.02-.02-.03-.02c-.23-.08-.35-.27-.32-.51,.11-.84,.21-1.68,.32-2.51,0-.03,0-.05,0-.08-.03-.13-.06-.26-.1-.41-.03,.05-.05,.07-.07,.1-.69,1.03-1.37,2.07-2.06,3.11-.08,.13-.18,.22-.34,.25-.17,.03-.32-.03-.42-.16-.11-.14-.13-.3-.05-.46,.02-.04,.04-.07,.06-.1,.65-.97,1.29-1.94,1.94-2.91,.05-.08,.06-.14,.04-.23-.2-.76-.39-1.52-.59-2.27-.07-.24,.06-.47,.33-.52,.95-.17,1.9-.34,2.89-.52-1.23-.82-2.45-1.62-3.67-2.43-.04,.11-.08,.21-.13,.31-.02,.04-.03,.08-.06,.11-.08,.11-.19,.13-.29,.07-.1-.07-.15-.21-.09-.32,.08-.13,.17-.27,.27-.38,.12-.14,.31-.14,.48-.03,.43,.28,.85,.56,1.28,.84,.91,.6,1.83,1.21,2.74,1.81,.12,.08,.2,.17,.22,.32,.03,.19-.1,.37-.31,.41-.39,.08-.78,.14-1.17,.21-.24,.04-.48,.09-.74,.13,.04,.16,.08,.32,.12,.48,.2,.8,.4,1.6,.6,2.4,.06,.22,.01,.43-.01,.65-.06,.5-.12,1-.19,1.5-.03,.26-.06,.53-.1,.79-.03,.2-.17,.31-.35,.38h-.2Z"/><path class="cls-1" d="M3.93,1.56c.41,0,.75,.33,.75,.74,0,.4-.34,.74-.75,.74-.41,0-.75-.33-.75-.74,0-.41,.33-.74,.75-.74Z"/></g></svg>